<svg xmlns="http://www.w3.org/2000/svg" width="100" height="100" viewBox="0 0 100 100" fill="none"><path d="M83.333 50V91.6666H16.6663V50M49.9997 91.6666V29.1666M49.9997 29.1666H31.2497C28.487 29.1666 25.8375 28.0692 23.884 26.1157C21.9305 24.1622 20.833 21.5127 20.833 18.75C20.833 15.9873 21.9305 13.3378 23.884 11.3843C25.8375 9.43078 28.487 8.33331 31.2497 8.33331C45.833 8.33331 49.9997 29.1666 49.9997 29.1666ZM49.9997 29.1666H68.7497C71.5123 29.1666 74.1619 28.0692 76.1154 26.1157C78.0689 24.1622 79.1663 21.5127 79.1663 18.75C79.1663 15.9873 78.0689 13.3378 76.1154 11.3843C74.1619 9.43078 71.5123 8.33331 68.7497 8.33331C54.1663 8.33331 49.9997 29.1666 49.9997 29.1666ZM8.33301 29.1666H91.6663V50H8.33301V29.1666Z" stroke="#9B1121" stroke-width="5" stroke-linecap="round" stroke-linejoin="round"/></svg>